<?xml version="1.0" standalone="no"?>
<!DOCTYPE svg PUBLIC "-//W3C//DTD SVG 20010904//EN"
 "http://www.w3.org/TR/2001/REC-SVG-20010904/DTD/svg10.dtd">
<svg version="1.0" xmlns="http://www.w3.org/2000/svg"
 width="512.000000pt" height="512.000000pt" viewBox="0 0 512.000000 512.000000"
 preserveAspectRatio="xMidYMid meet">
<metadata>
Created by potrace 1.14, written by Peter Selinger 2001-2017
</metadata>
<g transform="translate(0.000000,512.000000) scale(0.100000,-0.100000)"
fill="#000000" stroke="none">
<path d="M2108 5109 c-660 -31 -1095 -140 -1421 -356 -93 -61 -259 -227 -320
-320 -221 -333 -323 -752 -357 -1453 -31 -659 11 -1319 110 -1710 85 -336 205
-565 395 -755 196 -196 430 -316 780 -400 316 -76 748 -115 1265 -115 1082 0
1690 154 2050 519 268 271 411 652 474 1261 34 329 44 805 26 1200 -28 583
-103 960 -250 1265 -72 148 -143 248 -255 360 -319 320 -786 465 -1625 505
-242 11 -622 11 -872 -1z"/>
</g>
</svg>
